<svg xmlns="http://www.w3.org/2000/svg" width="1200" height="630" viewBox="0 0 1200 630">
  <defs>
    <style>
      .ink{fill:#141412}.ink2{fill:#57544C}.red{fill:#D92B1C}
      .stroke{stroke:#141412;stroke-width:1.5;fill:none}
      .mono{font-family:Consolas,"Courier New",monospace;font-weight:700}
      .black{font-family:"Arial Black",Arial,sans-serif;font-weight:900}
    </style>
    <pattern id="hatch" width="9" height="9" patternTransform="rotate(45)" patternUnits="userSpaceOnUse">
      <line x1="0" y1="0" x2="0" y2="9" stroke="#D92B1C" stroke-width="1.6"/>
    </pattern>
  </defs>
  <rect width="1200" height="630" fill="#F2F0EA"/>

  <text x="70" y="104" class="black ink" font-size="60" letter-spacing="-2">LOSSLESS MODEL COMPRESSION</text>
  <line x1="72" y1="132" x2="1128" y2="132" class="stroke"/>

  <text x="72" y="164" class="mono ink2" font-size="17" letter-spacing="2">NEMOTRON-3 ULTRA 550B &#183; BF16</text>
  <text x="1128" y="164" text-anchor="end" class="mono ink2" font-size="17" letter-spacing="2">IN VRAM</text>

  <!-- original footprint: dashed ghost the net never grows back into -->
  <rect x="72" y="176" width="1056" height="344" class="stroke" stroke-dasharray="8 8"/>

  <!-- freed zone -->
  <rect x="830.9" y="177" width="296.1" height="342" fill="url(#hatch)"/>
  <line x1="830.9" y1="177" x2="830.9" y2="519" stroke="#D92B1C" stroke-width="3"/>

  <!-- the folded net -->
  <g stroke="#57544C" stroke-opacity="0.45" stroke-width="1.3"><line x1="108.0" y1="265.2" x2="284.7" y2="249.4"/><line x1="108.0" y1="265.2" x2="284.7" y2="288.9"/><line x1="108.0" y1="265.2" x2="284.7" y2="328.3"/><line x1="108.0" y1="265.2" x2="284.7" y2="367.7"/><line x1="108.0" y1="265.2" x2="284.7" y2="407.1"/><line x1="108.0" y1="265.2" x2="284.7" y2="446.6"/><line x1="108.0" y1="320.4" x2="284.7" y2="249.4"/><line x1="108.0" y1="320.4" x2="284.7" y2="288.9"/><line x1="108.0" y1="320.4" x2="284.7" y2="328.3"/><line x1="108.0" y1="320.4" x2="284.7" y2="367.7"/><line x1="108.0" y1="320.4" x2="284.7" y2="407.1"/><line x1="108.0" y1="320.4" x2="284.7" y2="446.6"/><line x1="108.0" y1="375.6" x2="284.7" y2="249.4"/><line x1="108.0" y1="375.6" x2="284.7" y2="288.9"/><line x1="108.0" y1="375.6" x2="284.7" y2="328.3"/><line x1="108.0" y1="375.6" x2="284.7" y2="367.7"/><line x1="108.0" y1="375.6" x2="284.7" y2="407.1"/><line x1="108.0" y1="375.6" x2="284.7" y2="446.6"/><line x1="108.0" y1="430.8" x2="284.7" y2="249.4"/><line x1="108.0" y1="430.8" x2="284.7" y2="288.9"/><line x1="108.0" y1="430.8" x2="284.7" y2="328.3"/><line x1="108.0" y1="430.8" x2="284.7" y2="367.7"/><line x1="108.0" y1="430.8" x2="284.7" y2="407.1"/><line x1="108.0" y1="430.8" x2="284.7" y2="446.6"/><line x1="284.7" y1="249.4" x2="461.4" y2="244.5"/><line x1="284.7" y1="249.4" x2="461.4" y2="279.0"/><line x1="284.7" y1="249.4" x2="461.4" y2="313.5"/><line x1="284.7" y1="249.4" x2="461.4" y2="348.0"/><line x1="284.7" y1="249.4" x2="461.4" y2="382.5"/><line x1="284.7" y1="249.4" x2="461.4" y2="417.0"/><line x1="284.7" y1="249.4" x2="461.4" y2="451.5"/><line x1="284.7" y1="288.9" x2="461.4" y2="244.5"/><line x1="284.7" y1="288.9" x2="461.4" y2="279.0"/><line x1="284.7" y1="288.9" x2="461.4" y2="313.5"/><line x1="284.7" y1="288.9" x2="461.4" y2="348.0"/><line x1="284.7" y1="288.9" x2="461.4" y2="382.5"/><line x1="284.7" y1="288.9" x2="461.4" y2="417.0"/><line x1="284.7" y1="288.9" x2="461.4" y2="451.5"/><line x1="284.7" y1="328.3" x2="461.4" y2="244.5"/><line x1="284.7" y1="328.3" x2="461.4" y2="279.0"/><line x1="284.7" y1="328.3" x2="461.4" y2="313.5"/><line x1="284.7" y1="328.3" x2="461.4" y2="348.0"/><line x1="284.7" y1="328.3" x2="461.4" y2="382.5"/><line x1="284.7" y1="328.3" x2="461.4" y2="417.0"/><line x1="284.7" y1="328.3" x2="461.4" y2="451.5"/><line x1="284.7" y1="367.7" x2="461.4" y2="244.5"/><line x1="284.7" y1="367.7" x2="461.4" y2="279.0"/><line x1="284.7" y1="367.7" x2="461.4" y2="313.5"/><line x1="284.7" y1="367.7" x2="461.4" y2="348.0"/><line x1="284.7" y1="367.7" x2="461.4" y2="382.5"/><line x1="284.7" y1="367.7" x2="461.4" y2="417.0"/><line x1="284.7" y1="367.7" x2="461.4" y2="451.5"/><line x1="284.7" y1="407.1" x2="461.4" y2="244.5"/><line x1="284.7" y1="407.1" x2="461.4" y2="279.0"/><line x1="284.7" y1="407.1" x2="461.4" y2="313.5"/><line x1="284.7" y1="407.1" x2="461.4" y2="348.0"/><line x1="284.7" y1="407.1" x2="461.4" y2="382.5"/><line x1="284.7" y1="407.1" x2="461.4" y2="417.0"/><line x1="284.7" y1="407.1" x2="461.4" y2="451.5"/><line x1="284.7" y1="446.6" x2="461.4" y2="244.5"/><line x1="284.7" y1="446.6" x2="461.4" y2="279.0"/><line x1="284.7" y1="446.6" x2="461.4" y2="313.5"/><line x1="284.7" y1="446.6" x2="461.4" y2="348.0"/><line x1="284.7" y1="446.6" x2="461.4" y2="382.5"/><line x1="284.7" y1="446.6" x2="461.4" y2="417.0"/><line x1="284.7" y1="446.6" x2="461.4" y2="451.5"/><line x1="461.4" y1="244.5" x2="638.2" y2="249.4"/><line x1="461.4" y1="244.5" x2="638.2" y2="288.9"/><line x1="461.4" y1="244.5" x2="638.2" y2="328.3"/><line x1="461.4" y1="244.5" x2="638.2" y2="367.7"/><line x1="461.4" y1="244.5" x2="638.2" y2="407.1"/><line x1="461.4" y1="244.5" x2="638.2" y2="446.6"/><line x1="461.4" y1="279.0" x2="638.2" y2="249.4"/><line x1="461.4" y1="279.0" x2="638.2" y2="288.9"/><line x1="461.4" y1="279.0" x2="638.2" y2="328.3"/><line x1="461.4" y1="279.0" x2="638.2" y2="367.7"/><line x1="461.4" y1="279.0" x2="638.2" y2="407.1"/><line x1="461.4" y1="279.0" x2="638.2" y2="446.6"/><line x1="461.4" y1="313.5" x2="638.2" y2="249.4"/><line x1="461.4" y1="313.5" x2="638.2" y2="288.9"/><line x1="461.4" y1="313.5" x2="638.2" y2="328.3"/><line x1="461.4" y1="313.5" x2="638.2" y2="367.7"/><line x1="461.4" y1="313.5" x2="638.2" y2="407.1"/><line x1="461.4" y1="313.5" x2="638.2" y2="446.6"/><line x1="461.4" y1="348.0" x2="638.2" y2="249.4"/><line x1="461.4" y1="348.0" x2="638.2" y2="288.9"/><line x1="461.4" y1="348.0" x2="638.2" y2="328.3"/><line x1="461.4" y1="348.0" x2="638.2" y2="367.7"/><line x1="461.4" y1="348.0" x2="638.2" y2="407.1"/><line x1="461.4" y1="348.0" x2="638.2" y2="446.6"/><line x1="461.4" y1="382.5" x2="638.2" y2="249.4"/><line x1="461.4" y1="382.5" x2="638.2" y2="288.9"/><line x1="461.4" y1="382.5" x2="638.2" y2="328.3"/><line x1="461.4" y1="382.5" x2="638.2" y2="367.7"/><line x1="461.4" y1="382.5" x2="638.2" y2="407.1"/><line x1="461.4" y1="382.5" x2="638.2" y2="446.6"/><line x1="461.4" y1="417.0" x2="638.2" y2="249.4"/><line x1="461.4" y1="417.0" x2="638.2" y2="288.9"/><line x1="461.4" y1="417.0" x2="638.2" y2="328.3"/><line x1="461.4" y1="417.0" x2="638.2" y2="367.7"/><line x1="461.4" y1="417.0" x2="638.2" y2="407.1"/><line x1="461.4" y1="417.0" x2="638.2" y2="446.6"/><line x1="461.4" y1="451.5" x2="638.2" y2="249.4"/><line x1="461.4" y1="451.5" x2="638.2" y2="288.9"/><line x1="461.4" y1="451.5" x2="638.2" y2="328.3"/><line x1="461.4" y1="451.5" x2="638.2" y2="367.7"/><line x1="461.4" y1="451.5" x2="638.2" y2="407.1"/><line x1="461.4" y1="451.5" x2="638.2" y2="446.6"/><line x1="638.2" y1="249.4" x2="814.9" y2="265.2"/><line x1="638.2" y1="249.4" x2="814.9" y2="320.4"/><line x1="638.2" y1="249.4" x2="814.9" y2="375.6"/><line x1="638.2" y1="249.4" x2="814.9" y2="430.8"/><line x1="638.2" y1="288.9" x2="814.9" y2="265.2"/><line x1="638.2" y1="288.9" x2="814.9" y2="320.4"/><line x1="638.2" y1="288.9" x2="814.9" y2="375.6"/><line x1="638.2" y1="288.9" x2="814.9" y2="430.8"/><line x1="638.2" y1="328.3" x2="814.9" y2="265.2"/><line x1="638.2" y1="328.3" x2="814.9" y2="320.4"/><line x1="638.2" y1="328.3" x2="814.9" y2="375.6"/><line x1="638.2" y1="328.3" x2="814.9" y2="430.8"/><line x1="638.2" y1="367.7" x2="814.9" y2="265.2"/><line x1="638.2" y1="367.7" x2="814.9" y2="320.4"/><line x1="638.2" y1="367.7" x2="814.9" y2="375.6"/><line x1="638.2" y1="367.7" x2="814.9" y2="430.8"/><line x1="638.2" y1="407.1" x2="814.9" y2="265.2"/><line x1="638.2" y1="407.1" x2="814.9" y2="320.4"/><line x1="638.2" y1="407.1" x2="814.9" y2="375.6"/><line x1="638.2" y1="407.1" x2="814.9" y2="430.8"/><line x1="638.2" y1="446.6" x2="814.9" y2="265.2"/><line x1="638.2" y1="446.6" x2="814.9" y2="320.4"/><line x1="638.2" y1="446.6" x2="814.9" y2="375.6"/><line x1="638.2" y1="446.6" x2="814.9" y2="430.8"/></g>
  <g fill="#141412"><circle cx="108.0" cy="265.2" r="8"/><circle cx="108.0" cy="320.4" r="8"/><circle cx="108.0" cy="375.6" r="8"/><circle cx="108.0" cy="430.8" r="8"/><circle cx="284.7" cy="249.4" r="8"/><circle cx="284.7" cy="288.9" r="8"/><circle cx="284.7" cy="328.3" r="8"/><circle cx="284.7" cy="367.7" r="8"/><circle cx="284.7" cy="407.1" r="8"/><circle cx="284.7" cy="446.6" r="8"/><circle cx="461.4" cy="244.5" r="8"/><circle cx="461.4" cy="279.0" r="8"/><circle cx="461.4" cy="313.5" r="8"/><circle cx="461.4" cy="348.0" r="8"/><circle cx="461.4" cy="382.5" r="8"/><circle cx="461.4" cy="417.0" r="8"/><circle cx="461.4" cy="451.5" r="8"/><circle cx="638.2" cy="249.4" r="8"/><circle cx="638.2" cy="288.9" r="8"/><circle cx="638.2" cy="328.3" r="8"/><circle cx="638.2" cy="367.7" r="8"/><circle cx="638.2" cy="407.1" r="8"/><circle cx="638.2" cy="446.6" r="8"/><circle cx="814.9" cy="265.2" r="8"/><circle cx="814.9" cy="320.4" r="8"/><circle cx="814.9" cy="375.6" r="8"/><circle cx="814.9" cy="430.8" r="8"/></g>

  <!-- 750 GB chip riding the net -->
  <g>
    <rect x="343.4" y="310.0" width="236" height="76" fill="#F2F0EA" stroke="#141412" stroke-width="1.5"/>
    <text x="461.4" y="365.0" text-anchor="middle" class="black ink" font-size="46" letter-spacing="-2">750 GB</text>
  </g>

  <!-- freed-zone readout -->
  <g>
    <rect x="874.4" y="293.0" width="210" height="110" fill="#F2F0EA" stroke="#141412" stroke-width="1.5"/>
    <text x="979.4" y="340.0" text-anchor="middle" class="black red" font-size="40" letter-spacing="-2">&#8722;294 GB</text>
    <text x="979.4" y="382.0" text-anchor="middle" class="mono ink" font-size="16" letter-spacing="1">28.20% SMALLER</text>
  </g>

  <text x="600" y="566" text-anchor="middle" class="mono ink" font-size="23" letter-spacing="2">READ IN PLACE ON THE GPU &#183; SHA-256 MATCH &#183; NO QUALITY TRADEOFF</text>
</svg>
